<svg id="container" width="314.640625" xmlns="http://www.w3.org/2000/svg" class="erDiagram" height="1286.75" viewBox="0 0 314.640625 1286.75" role="graphics-document document" aria-roledescription="er"><style>#container{font-family:"trebuchet ms",verdana,arial,sans-serif;font-size:16px;fill:#333;}@keyframes edge-animation-frame{from{stroke-dashoffset:0;}}@keyframes dash{to{stroke-dashoffset:0;}}#container .edge-animation-slow{stroke-dasharray:9,5!important;stroke-dashoffset:900;animation:dash 50s linear infinite;stroke-linecap:round;}#container .edge-animation-fast{stroke-dasharray:9,5!important;stroke-dashoffset:900;animation:dash 20s linear infinite;stroke-linecap:round;}#container .error-icon{fill:#552222;}#container .error-text{fill:#552222;stroke:#552222;}#container .edge-thickness-normal{stroke-width:1px;}#container .edge-thickness-thick{stroke-width:3.5px;}#container .edge-pattern-solid{stroke-dasharray:0;}#container .edge-thickness-invisible{stroke-width:0;fill:none;}#container .edge-pattern-dashed{stroke-dasharray:3;}#container .edge-pattern-dotted{stroke-dasharray:2;}#container .marker{fill:#333333;stroke:#333333;}#container .marker.cross{stroke:#333333;}#container svg{font-family:"trebuchet ms",verdana,arial,sans-serif;font-size:16px;}#container p{margin:0;}#container .entityBox{fill:#ECECFF;stroke:#9370DB;}#container .relationshipLabelBox{fill:hsl(80, 100%, 96.2745098039%);opacity:0.7;background-color:hsl(80, 100%, 96.2745098039%);}#container .relationshipLabelBox rect{opacity:0.5;}#container .labelBkg{background-color:rgba(248.6666666666, 255, 235.9999999999, 0.5);}#container .edgeLabel .label{fill:#9370DB;font-size:14px;}#container .label{font-family:"trebuchet ms",verdana,arial,sans-serif;color:#333;}#container .edge-pattern-dashed{stroke-dasharray:8,8;}#container .node rect,#container .node circle,#container .node ellipse,#container .node polygon{fill:#ECECFF;stroke:#9370DB;stroke-width:1px;}#container .relationshipLine{stroke:#333333;stroke-width:1;fill:none;}#container .marker{fill:none!important;stroke:#333333!important;stroke-width:1;}#container :root{--mermaid-font-family:"trebuchet ms",verdana,arial,sans-serif;}</style><g><defs><marker id="container_er-onlyOneStart" class="marker onlyOne er" refX="0" refY="9" markerWidth="18" markerHeight="18" orient="auto"><path d="M9,0 L9,18 M15,0 L15,18"></path></marker></defs><defs><marker id="container_er-onlyOneEnd" class="marker onlyOne er" refX="18" refY="9" markerWidth="18" markerHeight="18" orient="auto"><path d="M3,0 L3,18 M9,0 L9,18"></path></marker></defs><defs><marker id="container_er-zeroOrOneStart" class="marker zeroOrOne er" refX="0" refY="9" markerWidth="30" markerHeight="18" orient="auto"><circle fill="white" cx="21" cy="9" r="6"></circle><path d="M9,0 L9,18"></path></marker></defs><defs><marker id="container_er-zeroOrOneEnd" class="marker zeroOrOne er" refX="30" refY="9" markerWidth="30" markerHeight="18" orient="auto"><circle fill="white" cx="9" cy="9" r="6"></circle><path d="M21,0 L21,18"></path></marker></defs><defs><marker id="container_er-oneOrMoreStart" class="marker oneOrMore er" refX="18" refY="18" markerWidth="45" markerHeight="36" orient="auto"><path d="M0,18 Q 18,0 36,18 Q 18,36 0,18 M42,9 L42,27"></path></marker></defs><defs><marker id="container_er-oneOrMoreEnd" class="marker oneOrMore er" refX="27" refY="18" markerWidth="45" markerHeight="36" orient="auto"><path d="M3,9 L3,27 M9,18 Q27,0 45,18 Q27,36 9,18"></path></marker></defs><defs><marker id="container_er-zeroOrMoreStart" class="marker zeroOrMore er" refX="18" refY="18" markerWidth="57" markerHeight="36" orient="auto"><circle fill="white" cx="48" cy="18" r="6"></circle><path d="M0,18 Q18,0 36,18 Q18,36 0,18"></path></marker></defs><defs><marker id="container_er-zeroOrMoreEnd" class="marker zeroOrMore er" refX="39" refY="18" markerWidth="57" markerHeight="36" orient="auto"><circle fill="white" cx="9" cy="18" r="6"></circle><path d="M21,18 Q39,0 57,18 Q39,36 21,18"></path></marker></defs><g class="root"><g class="clusters"></g><g class="edgePaths"><path d="M157.32,179L157.32,187.417C157.32,195.833,157.32,212.667,157.32,229.5C157.32,246.333,157.32,263.167,157.32,271.583L157.32,280" id="id_entity-CLIENT-0_entity-ACTIVITY_RECORD-1_0" class="edge-thickness-normal edge-pattern-solid relationshipLine" style="undefined;;;undefined" data-edge="true" data-et="edge" data-id="id_entity-CLIENT-0_entity-ACTIVITY_RECORD-1_0" data-points="W3sieCI6MTU3LjMyMDMxMjUsInkiOjE3OX0seyJ4IjoxNTcuMzIwMzEyNSwieSI6MjI5LjV9LHsieCI6MTU3LjMyMDMxMjUsInkiOjI4MH1d" marker-start="url(#container_er-onlyOneStart)" marker-end="url(#container_er-zeroOrMoreEnd)"></path><path d="M157.32,835.75L157.32,844.167C157.32,852.583,157.32,869.417,157.32,886.25C157.32,903.083,157.32,919.917,157.32,928.333L157.32,936.75" id="id_entity-ACTIVITY_RECORD-1_entity-AUDIT_TRAIL_LOG-2_1" class="edge-thickness-normal edge-pattern-solid relationshipLine" style="undefined;;;undefined" data-edge="true" data-et="edge" data-id="id_entity-ACTIVITY_RECORD-1_entity-AUDIT_TRAIL_LOG-2_1" data-points="W3sieCI6MTU3LjMyMDMxMjUsInkiOjgzNS43NX0seyJ4IjoxNTcuMzIwMzEyNSwieSI6ODg2LjI1fSx7IngiOjE1Ny4zMjAzMTI1LCJ5Ijo5MzYuNzV9XQ==" marker-start="url(#container_er-onlyOneStart)" marker-end="url(#container_er-zeroOrMoreEnd)"></path></g><g class="edgeLabels"><g class="edgeLabel" transform="translate(157.3203125, 229.5)"><g class="label" data-id="id_entity-CLIENT-0_entity-ACTIVITY_RECORD-1_0" transform="translate(-16.484375, -10.5)"><foreignObject width="32.96875" height="21"><div xmlns="http://www.w3.org/1999/xhtml" class="labelBkg" style="display: table-cell; white-space: nowrap; line-height: 1.5; max-width: 200px; text-align: center;"><span class="edgeLabel"><p>owns</p></span></div></foreignObject></g></g><g class="edgeLabel" transform="translate(157.3203125, 886.25)"><g class="label" data-id="id_entity-ACTIVITY_RECORD-1_entity-AUDIT_TRAIL_LOG-2_1" transform="translate(-11.109375, -10.5)"><foreignObject width="22.21875" height="21"><div xmlns="http://www.w3.org/1999/xhtml" class="labelBkg" style="display: table-cell; white-space: nowrap; line-height: 1.5; max-width: 200px; text-align: center;"><span class="edgeLabel"><p>has</p></span></div></foreignObject></g></g></g><g class="nodes"><g class="node default" id="entity-CLIENT-0" transform="translate(157.3203125, 93.5)"><g style=""><path d="M-88.59375 -85.5 L88.59375 -85.5 L88.59375 85.5 L-88.59375 85.5" stroke="none" stroke-width="0" fill="#ECECFF"></path><path d="M-88.59375 -85.5 C-43.25827661684897 -85.5, 2.077196766302066 -85.5, 88.59375 -85.5 M-88.59375 -85.5 C-41.22693494394619 -85.5, 6.139880112107619 -85.5, 88.59375 -85.5 M88.59375 -85.5 C88.59375 -45.292569023422274, 88.59375 -5.085138046844548, 88.59375 85.5 M88.59375 -85.5 C88.59375 -31.019878726994847, 88.59375 23.460242546010306, 88.59375 85.5 M88.59375 85.5 C40.50676253354701 85.5, -7.580224932905978 85.5, -88.59375 85.5 M88.59375 85.5 C39.05041314955446 85.5, -10.492923700891083 85.5, -88.59375 85.5 M-88.59375 85.5 C-88.59375 21.304152469843032, -88.59375 -42.891695060313936, -88.59375 -85.5 M-88.59375 85.5 C-88.59375 41.79096419378137, -88.59375 -1.9180716124372594, -88.59375 -85.5" stroke="#9370DB" stroke-width="1.3" fill="none" stroke-dasharray="0 0"></path></g><g style="" class="row-rect-odd"><path d="M-88.59375 -42.75 L88.59375 -42.75 L88.59375 0 L-88.59375 0" stroke="none" stroke-width="0" fill="hsl(240, 100%, 100%)"></path><path d="M-88.59375 -42.75 C-51.26259133862585 -42.75, -13.931432677251706 -42.75, 88.59375 -42.75 M-88.59375 -42.75 C-20.068064466528398 -42.75, 48.457621066943204 -42.75, 88.59375 -42.75 M88.59375 -42.75 C88.59375 -26.34358344973405, 88.59375 -9.937166899468103, 88.59375 0 M88.59375 -42.75 C88.59375 -32.676653144159445, 88.59375 -22.603306288318883, 88.59375 0 M88.59375 0 C24.882375474606135 0, -38.82899905078773 0, -88.59375 0 M88.59375 0 C33.28801251260559 0, -22.01772497478882 0, -88.59375 0 M-88.59375 0 C-88.59375 -13.946094459012592, -88.59375 -27.892188918025184, -88.59375 -42.75 M-88.59375 0 C-88.59375 -14.98390883012161, -88.59375 -29.96781766024322, -88.59375 -42.75" stroke="#9370DB" stroke-width="1.3" fill="none" stroke-dasharray="0 0"></path></g><g style="" class="row-rect-even"><path d="M-88.59375 0 L88.59375 0 L88.59375 42.75 L-88.59375 42.75" stroke="none" stroke-width="0" fill="hsl(240, 100%, 97.2745098039%)"></path><path d="M-88.59375 0 C-23.04135620106655 0, 42.5110375978669 0, 88.59375 0 M-88.59375 0 C-20.068425190756173 0, 48.456899618487654 0, 88.59375 0 M88.59375 0 C88.59375 14.44544149990826, 88.59375 28.89088299981652, 88.59375 42.75 M88.59375 0 C88.59375 12.706697238351328, 88.59375 25.413394476702656, 88.59375 42.75 M88.59375 42.75 C39.38983201002641 42.75, -9.81408597994718 42.75, -88.59375 42.75 M88.59375 42.75 C22.731654800706906 42.75, -43.13044039858619 42.75, -88.59375 42.75 M-88.59375 42.75 C-88.59375 32.99731271650853, -88.59375 23.244625433017056, -88.59375 0 M-88.59375 42.75 C-88.59375 27.71471267872793, -88.59375 12.679425357455862, -88.59375 0" stroke="#9370DB" stroke-width="1.3" fill="none" stroke-dasharray="0 0"></path></g><g style="" class="row-rect-odd"><path d="M-88.59375 42.75 L88.59375 42.75 L88.59375 85.5 L-88.59375 85.5" stroke="none" stroke-width="0" fill="hsl(240, 100%, 100%)"></path><path d="M-88.59375 42.75 C-37.101060431345964 42.75, 14.391629137308072 42.75, 88.59375 42.75 M-88.59375 42.75 C-24.578855424612925 42.75, 39.43603915077415 42.75, 88.59375 42.75 M88.59375 42.75 C88.59375 57.50559117451937, 88.59375 72.26118234903873, 88.59375 85.5 M88.59375 42.75 C88.59375 51.375995352518544, 88.59375 60.001990705037095, 88.59375 85.5 M88.59375 85.5 C33.88993928379434 85.5, -20.813871432411318 85.5, -88.59375 85.5 M88.59375 85.5 C49.208060417402116 85.5, 9.822370834804232 85.5, -88.59375 85.5 M-88.59375 85.5 C-88.59375 73.77311329747306, -88.59375 62.04622659494612, -88.59375 42.75 M-88.59375 85.5 C-88.59375 75.90143777939716, -88.59375 66.30287555879433, -88.59375 42.75" stroke="#9370DB" stroke-width="1.3" fill="none" stroke-dasharray="0 0"></path></g><g class="label name" transform="translate(-24.7109375, -76.125)" style=""><foreignObject width="49.421875" height="24"><div xmlns="http://www.w3.org/1999/xhtml" style="display: table-cell; white-space: nowrap; line-height: 1.5; max-width: 150px; text-align: start;"><span class="nodeLabel"><p>CLIENT</p></span></div></foreignObject></g><g class="label attribute-type" transform="translate(-76.09375, -33.375)" style=""><foreignObject width="19.671875" height="24"><div xmlns="http://www.w3.org/1999/xhtml" style="display: table-cell; white-space: nowrap; line-height: 1.5; max-width: 120px; text-align: start;"><span class="nodeLabel"><p>int</p></span></div></foreignObject></g><g class="label attribute-name" transform="translate(-9.453125, -33.375)" style=""><foreignObject width="14.09375" height="24"><div xmlns="http://www.w3.org/1999/xhtml" style="display: table-cell; white-space: nowrap; line-height: 1.5; max-width: 114px; text-align: start;"><span class="nodeLabel"><p>id</p></span></div></foreignObject></g><g class="label attribute-keys" transform="translate(56.0625, -33.375)" style=""><foreignObject width="18.734375" height="24"><div xmlns="http://www.w3.org/1999/xhtml" style="display: table-cell; white-space: nowrap; line-height: 1.5; max-width: 119px; text-align: start;"><span class="nodeLabel"><p>PK</p></span></div></foreignObject></g><g class="label attribute-comment" transform="translate(101.09375, -33.375)" style=""><foreignObject width="0" height="0"><div xmlns="http://www.w3.org/1999/xhtml" style="display: table-cell; white-space: nowrap; line-height: 1.5; max-width: 100px; text-align: start;"><span class="nodeLabel"></span></div></foreignObject></g><g class="label attribute-type" transform="translate(-76.09375, 9.375)" style=""><foreignObject width="41.640625" height="24"><div xmlns="http://www.w3.org/1999/xhtml" style="display: table-cell; white-space: nowrap; line-height: 1.5; max-width: 142px; text-align: start;"><span class="nodeLabel"><p>string</p></span></div></foreignObject></g><g class="label attribute-name" transform="translate(-9.453125, 9.375)" style=""><foreignObject width="40.515625" height="24"><div xmlns="http://www.w3.org/1999/xhtml" style="display: table-cell; white-space: nowrap; line-height: 1.5; max-width: 141px; text-align: start;"><span class="nodeLabel"><p>name</p></span></div></foreignObject></g><g class="label attribute-keys" transform="translate(56.0625, 9.375)" style=""><foreignObject width="20.03125" height="24"><div xmlns="http://www.w3.org/1999/xhtml" style="display: table-cell; white-space: nowrap; line-height: 1.5; max-width: 121px; text-align: start;"><span class="nodeLabel"><p>UK</p></span></div></foreignObject></g><g class="label attribute-comment" transform="translate(101.09375, 9.375)" style=""><foreignObject width="0" height="0"><div xmlns="http://www.w3.org/1999/xhtml" style="display: table-cell; white-space: nowrap; line-height: 1.5; max-width: 100px; text-align: start;"><span class="nodeLabel"></span></div></foreignObject></g><g class="label attribute-type" transform="translate(-76.09375, 52.125)" style=""><foreignObject width="41.640625" height="24"><div xmlns="http://www.w3.org/1999/xhtml" style="display: table-cell; white-space: nowrap; line-height: 1.5; max-width: 142px; text-align: start;"><span class="nodeLabel"><p>string</p></span></div></foreignObject></g><g class="label attribute-name" transform="translate(-9.453125, 52.125)" style=""><foreignObject width="34.96875" height="24"><div xmlns="http://www.w3.org/1999/xhtml" style="display: table-cell; white-space: nowrap; line-height: 1.5; max-width: 135px; text-align: start;"><span class="nodeLabel"><p>code</p></span></div></foreignObject></g><g class="label attribute-keys" transform="translate(56.0625, 52.125)" style=""><foreignObject width="20.03125" height="24"><div xmlns="http://www.w3.org/1999/xhtml" style="display: table-cell; white-space: nowrap; line-height: 1.5; max-width: 121px; text-align: start;"><span class="nodeLabel"><p>UK</p></span></div></foreignObject></g><g class="label attribute-comment" transform="translate(101.09375, 52.125)" style=""><foreignObject width="0" height="0"><div xmlns="http://www.w3.org/1999/xhtml" style="display: table-cell; white-space: nowrap; line-height: 1.5; max-width: 100px; text-align: start;"><span class="nodeLabel"></span></div></foreignObject></g><g class="divider"><path d="M-88.59375 -42.75 C-51.36781613251506 -42.75, -14.14188226503012 -42.75, 88.59375 -42.75 M-88.59375 -42.75 C-52.80055614507209 -42.75, -17.007362290144187 -42.75, 88.59375 -42.75" stroke="#9370DB" stroke-width="1.3" fill="none" stroke-dasharray="0 0"></path></g><g class="divider"><path d="M-21.953125 -42.75 C-21.953125 -3.678059614136437, -21.953125 35.393880771727126, -21.953125 85.5 M-21.953125 -42.75 C-21.953125 -15.423846331374715, -21.953125 11.90230733725057, -21.953125 85.5" stroke="#9370DB" stroke-width="1.3" fill="none" stroke-dasharray="0 0"></path></g><g class="divider"><path d="M43.5625 -42.75 C43.5625 -3.6864317306547463, 43.5625 35.37713653869051, 43.5625 85.5 M43.5625 -42.75 C43.5625 -13.687304279350354, 43.5625 15.375391441299293, 43.5625 85.5" stroke="#9370DB" stroke-width="1.3" fill="none" stroke-dasharray="0 0"></path></g><g class="divider"><path d="M-88.59375 -42.75 C-48.353141753159065 -42.75, -8.11253350631813 -42.75, 88.59375 -42.75 M-88.59375 -42.75 C-26.788234909960117 -42.75, 35.017280180079766 -42.75, 88.59375 -42.75" stroke="#9370DB" stroke-width="1.3" fill="none" stroke-dasharray="0 0"></path></g></g><g class="node default" id="entity-ACTIVITY_RECORD-1" transform="translate(157.3203125, 557.875)"><g style=""><path d="M-149.3203125 -277.875 L149.3203125 -277.875 L149.3203125 277.875 L-149.3203125 277.875" stroke="none" stroke-width="0" fill="#ECECFF"></path><path d="M-149.3203125 -277.875 C-37.326570533600545 -277.875, 74.66717143279891 -277.875, 149.3203125 -277.875 M-149.3203125 -277.875 C-65.128076061645 -277.875, 19.064160376709992 -277.875, 149.3203125 -277.875 M149.3203125 -277.875 C149.3203125 -139.66639649179893, 149.3203125 -1.4577929835978694, 149.3203125 277.875 M149.3203125 -277.875 C149.3203125 -58.21914091244918, 149.3203125 161.43671817510165, 149.3203125 277.875 M149.3203125 277.875 C60.396501666839185 277.875, -28.52730916632163 277.875, -149.3203125 277.875 M149.3203125 277.875 C53.944095977817085 277.875, -41.43212054436583 277.875, -149.3203125 277.875 M-149.3203125 277.875 C-149.3203125 153.4499018885512, -149.3203125 29.02480377710245, -149.3203125 -277.875 M-149.3203125 277.875 C-149.3203125 65.03626008790914, -149.3203125 -147.80247982418172, -149.3203125 -277.875" stroke="#9370DB" stroke-width="1.3" fill="none" stroke-dasharray="0 0"></path></g><g style="" class="row-rect-odd"><path d="M-149.3203125 -235.125 L149.3203125 -235.125 L149.3203125 -192.375 L-149.3203125 -192.375" stroke="none" stroke-width="0" fill="hsl(240, 100%, 100%)"></path><path d="M-149.3203125 -235.125 C-53.9408855241511 -235.125, 41.4385414516978 -235.125, 149.3203125 -235.125 M-149.3203125 -235.125 C-51.959940575104355 -235.125, 45.40043134979129 -235.125, 149.3203125 -235.125 M149.3203125 -235.125 C149.3203125 -223.7472199183507, 149.3203125 -212.3694398367014, 149.3203125 -192.375 M149.3203125 -235.125 C149.3203125 -221.65481755140186, 149.3203125 -208.1846351028037, 149.3203125 -192.375 M149.3203125 -192.375 C36.95366953035614 -192.375, -75.41297343928773 -192.375, -149.3203125 -192.375 M149.3203125 -192.375 C80.3434181059956 -192.375, 11.366523711991192 -192.375, -149.3203125 -192.375 M-149.3203125 -192.375 C-149.3203125 -204.79414636505834, -149.3203125 -217.2132927301167, -149.3203125 -235.125 M-149.3203125 -192.375 C-149.3203125 -206.5143042599043, -149.3203125 -220.6536085198086, -149.3203125 -235.125" stroke="#9370DB" stroke-width="1.3" fill="none" stroke-dasharray="0 0"></path></g><g style="" class="row-rect-even"><path d="M-149.3203125 -192.375 L149.3203125 -192.375 L149.3203125 -149.625 L-149.3203125 -149.625" stroke="none" stroke-width="0" fill="hsl(240, 100%, 97.2745098039%)"></path><path d="M-149.3203125 -192.375 C-39.08060269682208 -192.375, 71.15910710635583 -192.375, 149.3203125 -192.375 M-149.3203125 -192.375 C-44.6485292500347 -192.375, 60.0232539999306 -192.375, 149.3203125 -192.375 M149.3203125 -192.375 C149.3203125 -179.96653795191256, 149.3203125 -167.5580759038251, 149.3203125 -149.625 M149.3203125 -192.375 C149.3203125 -182.9909535641931, 149.3203125 -173.6069071283862, 149.3203125 -149.625 M149.3203125 -149.625 C59.57267265392417 -149.625, -30.174967192151655 -149.625, -149.3203125 -149.625 M149.3203125 -149.625 C58.771241799094184 -149.625, -31.77782890181163 -149.625, -149.3203125 -149.625 M-149.3203125 -149.625 C-149.3203125 -163.24255979235562, -149.3203125 -176.86011958471124, -149.3203125 -192.375 M-149.3203125 -149.625 C-149.3203125 -165.37334398544368, -149.3203125 -181.12168797088736, -149.3203125 -192.375" stroke="#9370DB" stroke-width="1.3" fill="none" stroke-dasharray="0 0"></path></g><g style="" class="row-rect-odd"><path d="M-149.3203125 -149.625 L149.3203125 -149.625 L149.3203125 -106.875 L-149.3203125 -106.875" stroke="none" stroke-width="0" fill="hsl(240, 100%, 100%)"></path><path d="M-149.3203125 -149.625 C-35.73455689390809 -149.625, 77.85119871218382 -149.625, 149.3203125 -149.625 M-149.3203125 -149.625 C-35.17543243352955 -149.625, 78.9694476329409 -149.625, 149.3203125 -149.625 M149.3203125 -149.625 C149.3203125 -138.38678137511644, 149.3203125 -127.1485627502329, 149.3203125 -106.875 M149.3203125 -149.625 C149.3203125 -136.29842352139025, 149.3203125 -122.97184704278047, 149.3203125 -106.875 M149.3203125 -106.875 C61.28806214668218 -106.875, -26.74418820663564 -106.875, -149.3203125 -106.875 M149.3203125 -106.875 C69.47519405870506 -106.875, -10.369924382589886 -106.875, -149.3203125 -106.875 M-149.3203125 -106.875 C-149.3203125 -118.36460252540189, -149.3203125 -129.85420505080378, -149.3203125 -149.625 M-149.3203125 -106.875 C-149.3203125 -121.70861513333777, -149.3203125 -136.54223026667555, -149.3203125 -149.625" stroke="#9370DB" stroke-width="1.3" fill="none" stroke-dasharray="0 0"></path></g><g style="" class="row-rect-even"><path d="M-149.3203125 -106.875 L149.3203125 -106.875 L149.3203125 -64.125 L-149.3203125 -64.125" stroke="none" stroke-width="0" fill="hsl(240, 100%, 97.2745098039%)"></path><path d="M-149.3203125 -106.875 C-48.81445571795149 -106.875, 51.69140106409702 -106.875, 149.3203125 -106.875 M-149.3203125 -106.875 C-70.21888392290779 -106.875, 8.882544654184414 -106.875, 149.3203125 -106.875 M149.3203125 -106.875 C149.3203125 -90.74299644346371, 149.3203125 -74.61099288692743, 149.3203125 -64.125 M149.3203125 -106.875 C149.3203125 -92.4346561892348, 149.3203125 -77.99431237846959, 149.3203125 -64.125 M149.3203125 -64.125 C73.38139479702065 -64.125, -2.557522905958706 -64.125, -149.3203125 -64.125 M149.3203125 -64.125 C32.18401384686507 -64.125, -84.95228480626986 -64.125, -149.3203125 -64.125 M-149.3203125 -64.125 C-149.3203125 -79.12273005025357, -149.3203125 -94.12046010050712, -149.3203125 -106.875 M-149.3203125 -64.125 C-149.3203125 -76.42986959625654, -149.3203125 -88.73473919251309, -149.3203125 -106.875" stroke="#9370DB" stroke-width="1.3" fill="none" stroke-dasharray="0 0"></path></g><g style="" class="row-rect-odd"><path d="M-149.3203125 -64.125 L149.3203125 -64.125 L149.3203125 -21.375 L-149.3203125 -21.375" stroke="none" stroke-width="0" fill="hsl(240, 100%, 100%)"></path><path d="M-149.3203125 -64.125 C-44.81880486970206 -64.125, 59.68270276059587 -64.125, 149.3203125 -64.125 M-149.3203125 -64.125 C-75.07128161101387 -64.125, -0.8222507220277464 -64.125, 149.3203125 -64.125 M149.3203125 -64.125 C149.3203125 -50.288149897736176, 149.3203125 -36.451299795472345, 149.3203125 -21.375 M149.3203125 -64.125 C149.3203125 -49.43282492000156, 149.3203125 -34.740649840003115, 149.3203125 -21.375 M149.3203125 -21.375 C68.49831871807025 -21.375, -12.323675063859497 -21.375, -149.3203125 -21.375 M149.3203125 -21.375 C59.79440965320708 -21.375, -29.731493193585834 -21.375, -149.3203125 -21.375 M-149.3203125 -21.375 C-149.3203125 -32.36309731811621, -149.3203125 -43.35119463623242, -149.3203125 -64.125 M-149.3203125 -21.375 C-149.3203125 -34.55421223563934, -149.3203125 -47.733424471278674, -149.3203125 -64.125" stroke="#9370DB" stroke-width="1.3" fill="none" stroke-dasharray="0 0"></path></g><g style="" class="row-rect-even"><path d="M-149.3203125 -21.375 L149.3203125 -21.375 L149.3203125 21.375 L-149.3203125 21.375" stroke="none" stroke-width="0" fill="hsl(240, 100%, 97.2745098039%)"></path><path d="M-149.3203125 -21.375 C-36.44255501602606 -21.375, 76.43520246794787 -21.375, 149.3203125 -21.375 M-149.3203125 -21.375 C-48.619981403062255 -21.375, 52.08034969387549 -21.375, 149.3203125 -21.375 M149.3203125 -21.375 C149.3203125 -12.695534523642635, 149.3203125 -4.016069047285271, 149.3203125 21.375 M149.3203125 -21.375 C149.3203125 -4.645262242781261, 149.3203125 12.084475514437479, 149.3203125 21.375 M149.3203125 21.375 C41.705582067166645 21.375, -65.90914836566671 21.375, -149.3203125 21.375 M149.3203125 21.375 C40.251579862634486 21.375, -68.81715277473103 21.375, -149.3203125 21.375 M-149.3203125 21.375 C-149.3203125 6.8139032191523015, -149.3203125 -7.747193561695397, -149.3203125 -21.375 M-149.3203125 21.375 C-149.3203125 9.175362264733748, -149.3203125 -3.024275470532505, -149.3203125 -21.375" stroke="#9370DB" stroke-width="1.3" fill="none" stroke-dasharray="0 0"></path></g><g style="" class="row-rect-odd"><path d="M-149.3203125 21.375 L149.3203125 21.375 L149.3203125 64.125 L-149.3203125 64.125" stroke="none" stroke-width="0" fill="hsl(240, 100%, 100%)"></path><path d="M-149.3203125 21.375 C-62.04429861497732 21.375, 25.231715270045356 21.375, 149.3203125 21.375 M-149.3203125 21.375 C-67.04611885071975 21.375, 15.228074798560499 21.375, 149.3203125 21.375 M149.3203125 21.375 C149.3203125 32.06293436412798, 149.3203125 42.750868728255966, 149.3203125 64.125 M149.3203125 21.375 C149.3203125 30.557302356649025, 149.3203125 39.73960471329805, 149.3203125 64.125 M149.3203125 64.125 C34.25365643113348 64.125, -80.81299963773304 64.125, -149.3203125 64.125 M149.3203125 64.125 C69.52981208973945 64.125, -10.260688320521098 64.125, -149.3203125 64.125 M-149.3203125 64.125 C-149.3203125 49.633082315358735, -149.3203125 35.14116463071746, -149.3203125 21.375 M-149.3203125 64.125 C-149.3203125 49.879740130162034, -149.3203125 35.63448026032407, -149.3203125 21.375" stroke="#9370DB" stroke-width="1.3" fill="none" stroke-dasharray="0 0"></path></g><g style="" class="row-rect-even"><path d="M-149.3203125 64.125 L149.3203125 64.125 L149.3203125 106.875 L-149.3203125 106.875" stroke="none" stroke-width="0" fill="hsl(240, 100%, 97.2745098039%)"></path><path d="M-149.3203125 64.125 C-39.63047599811914 64.125, 70.05936050376172 64.125, 149.3203125 64.125 M-149.3203125 64.125 C-46.551797328259184 64.125, 56.21671784348163 64.125, 149.3203125 64.125 M149.3203125 64.125 C149.3203125 76.18719489781036, 149.3203125 88.24938979562071, 149.3203125 106.875 M149.3203125 64.125 C149.3203125 74.64618955513777, 149.3203125 85.16737911027553, 149.3203125 106.875 M149.3203125 106.875 C66.41104427480215 106.875, -16.498223950395698 106.875, -149.3203125 106.875 M149.3203125 106.875 C42.75284002350047 106.875, -63.814632452999064 106.875, -149.3203125 106.875 M-149.3203125 106.875 C-149.3203125 95.59787933136127, -149.3203125 84.32075866272254, -149.3203125 64.125 M-149.3203125 106.875 C-149.3203125 90.4148064153716, -149.3203125 73.95461283074319, -149.3203125 64.125" stroke="#9370DB" stroke-width="1.3" fill="none" stroke-dasharray="0 0"></path></g><g style="" class="row-rect-odd"><path d="M-149.3203125 106.875 L149.3203125 106.875 L149.3203125 149.625 L-149.3203125 149.625" stroke="none" stroke-width="0" fill="hsl(240, 100%, 100%)"></path><path d="M-149.3203125 106.875 C-76.72131158995059 106.875, -4.122310679901176 106.875, 149.3203125 106.875 M-149.3203125 106.875 C-61.63197204633758 106.875, 26.05636840732484 106.875, 149.3203125 106.875 M149.3203125 106.875 C149.3203125 119.52362630484143, 149.3203125 132.17225260968286, 149.3203125 149.625 M149.3203125 106.875 C149.3203125 122.59986233435782, 149.3203125 138.32472466871565, 149.3203125 149.625 M149.3203125 149.625 C30.101326966447388 149.625, -89.11765856710522 149.625, -149.3203125 149.625 M149.3203125 149.625 C48.21427761664373 149.625, -52.891757266712546 149.625, -149.3203125 149.625 M-149.3203125 149.625 C-149.3203125 133.322239903343, -149.3203125 117.01947980668595, -149.3203125 106.875 M-149.3203125 149.625 C-149.3203125 140.53278917924425, -149.3203125 131.4405783584885, -149.3203125 106.875" stroke="#9370DB" stroke-width="1.3" fill="none" stroke-dasharray="0 0"></path></g><g style="" class="row-rect-even"><path d="M-149.3203125 149.625 L149.3203125 149.625 L149.3203125 192.375 L-149.3203125 192.375" stroke="none" stroke-width="0" fill="hsl(240, 100%, 97.2745098039%)"></path><path d="M-149.3203125 149.625 C-86.53220400513092 149.625, -23.744095510261857 149.625, 149.3203125 149.625 M-149.3203125 149.625 C-38.918184937339475 149.625, 71.48394262532105 149.625, 149.3203125 149.625 M149.3203125 149.625 C149.3203125 161.92238884421008, 149.3203125 174.21977768842015, 149.3203125 192.375 M149.3203125 149.625 C149.3203125 164.00145879563684, 149.3203125 178.37791759127367, 149.3203125 192.375 M149.3203125 192.375 C32.634848452033026 192.375, -84.05061559593395 192.375, -149.3203125 192.375 M149.3203125 192.375 C68.75297020280388 192.375, -11.81437209439224 192.375, -149.3203125 192.375 M-149.3203125 192.375 C-149.3203125 176.03574651237162, -149.3203125 159.6964930247432, -149.3203125 149.625 M-149.3203125 192.375 C-149.3203125 178.2149357145531, -149.3203125 164.05487142910619, -149.3203125 149.625" stroke="#9370DB" stroke-width="1.3" fill="none" stroke-dasharray="0 0"></path></g><g style="" class="row-rect-odd"><path d="M-149.3203125 192.375 L149.3203125 192.375 L149.3203125 235.125 L-149.3203125 235.125" stroke="none" stroke-width="0" fill="hsl(240, 100%, 100%)"></path><path d="M-149.3203125 192.375 C-51.945071459214034 192.375, 45.43016958157193 192.375, 149.3203125 192.375 M-149.3203125 192.375 C-83.58810587275595 192.375, -17.855899245511893 192.375, 149.3203125 192.375 M149.3203125 192.375 C149.3203125 207.99958587645236, 149.3203125 223.62417175290472, 149.3203125 235.125 M149.3203125 192.375 C149.3203125 203.92021595930933, 149.3203125 215.46543191861863, 149.3203125 235.125 M149.3203125 235.125 C55.36159990249921 235.125, -38.597112695001584 235.125, -149.3203125 235.125 M149.3203125 235.125 C44.84993978932239 235.125, -59.62043292135522 235.125, -149.3203125 235.125 M-149.3203125 235.125 C-149.3203125 224.08677435150867, -149.3203125 213.04854870301733, -149.3203125 192.375 M-149.3203125 235.125 C-149.3203125 219.0031380018184, -149.3203125 202.88127600363683, -149.3203125 192.375" stroke="#9370DB" stroke-width="1.3" fill="none" stroke-dasharray="0 0"></path></g><g style="" class="row-rect-even"><path d="M-149.3203125 235.125 L149.3203125 235.125 L149.3203125 277.875 L-149.3203125 277.875" stroke="none" stroke-width="0" fill="hsl(240, 100%, 97.2745098039%)"></path><path d="M-149.3203125 235.125 C-46.83214503698346 235.125, 55.656022426033076 235.125, 149.3203125 235.125 M-149.3203125 235.125 C-65.6895080740192 235.125, 17.941296351961597 235.125, 149.3203125 235.125 M149.3203125 235.125 C149.3203125 251.83482859433153, 149.3203125 268.54465718866305, 149.3203125 277.875 M149.3203125 235.125 C149.3203125 244.33924576325697, 149.3203125 253.5534915265139, 149.3203125 277.875 M149.3203125 277.875 C70.9129210973747 277.875, -7.494470305250587 277.875, -149.3203125 277.875 M149.3203125 277.875 C42.206720708851606 277.875, -64.90687108229679 277.875, -149.3203125 277.875 M-149.3203125 277.875 C-149.3203125 261.07999917585136, -149.3203125 244.28499835170277, -149.3203125 235.125 M-149.3203125 277.875 C-149.3203125 262.5156673808597, -149.3203125 247.15633476171942, -149.3203125 235.125" stroke="#9370DB" stroke-width="1.3" fill="none" stroke-dasharray="0 0"></path></g><g class="label name" transform="translate(-63.140625, -268.5)" style=""><foreignObject width="126.28125" height="24"><div xmlns="http://www.w3.org/1999/xhtml" style="display: table-cell; white-space: nowrap; line-height: 1.5; max-width: 226px; text-align: start;"><span class="nodeLabel"><p>ACTIVITY_RECORD</p></span></div></foreignObject></g><g class="label attribute-type" transform="translate(-136.8203125, -225.75)" style=""><foreignObject width="19.671875" height="24"><div xmlns="http://www.w3.org/1999/xhtml" style="display: table-cell; white-space: nowrap; line-height: 1.5; max-width: 120px; text-align: start;"><span class="nodeLabel"><p>int</p></span></div></foreignObject></g><g class="label attribute-name" transform="translate(-46.5703125, -225.75)" style=""><foreignObject width="14.09375" height="24"><div xmlns="http://www.w3.org/1999/xhtml" style="display: table-cell; white-space: nowrap; line-height: 1.5; max-width: 114px; text-align: start;"><span class="nodeLabel"><p>id</p></span></div></foreignObject></g><g class="label attribute-keys" transform="translate(118.0859375, -225.75)" style=""><foreignObject width="18.734375" height="24"><div xmlns="http://www.w3.org/1999/xhtml" style="display: table-cell; white-space: nowrap; line-height: 1.5; max-width: 119px; text-align: start;"><span class="nodeLabel"><p>PK</p></span></div></foreignObject></g><g class="label attribute-comment" transform="translate(161.8203125, -225.75)" style=""><foreignObject width="0" height="0"><div xmlns="http://www.w3.org/1999/xhtml" style="display: table-cell; white-space: nowrap; line-height: 1.5; max-width: 100px; text-align: start;"><span class="nodeLabel"></span></div></foreignObject></g><g class="label attribute-type" transform="translate(-136.8203125, -183)" style=""><foreignObject width="19.671875" height="24"><div xmlns="http://www.w3.org/1999/xhtml" style="display: table-cell; white-space: nowrap; line-height: 1.5; max-width: 120px; text-align: start;"><span class="nodeLabel"><p>int</p></span></div></foreignObject></g><g class="label attribute-name" transform="translate(-46.5703125, -183)" style=""><foreignObject width="63.125" height="24"><div xmlns="http://www.w3.org/1999/xhtml" style="display: table-cell; white-space: nowrap; line-height: 1.5; max-width: 163px; text-align: start;"><span class="nodeLabel"><p>client_id</p></span></div></foreignObject></g><g class="label attribute-keys" transform="translate(118.0859375, -183)" style=""><foreignObject width="17.28125" height="24"><div xmlns="http://www.w3.org/1999/xhtml" style="display: table-cell; white-space: nowrap; line-height: 1.5; max-width: 118px; text-align: start;"><span class="nodeLabel"><p>FK</p></span></div></foreignObject></g><g class="label attribute-comment" transform="translate(161.8203125, -183)" style=""><foreignObject width="0" height="0"><div xmlns="http://www.w3.org/1999/xhtml" style="display: table-cell; white-space: nowrap; line-height: 1.5; max-width: 100px; text-align: start;"><span class="nodeLabel"></span></div></foreignObject></g><g class="label attribute-type" transform="translate(-136.8203125, -140.25)" style=""><foreignObject width="41.640625" height="24"><div xmlns="http://www.w3.org/1999/xhtml" style="display: table-cell; white-space: nowrap; line-height: 1.5; max-width: 142px; text-align: start;"><span class="nodeLabel"><p>string</p></span></div></foreignObject></g><g class="label attribute-name" transform="translate(-46.5703125, -140.25)" style=""><foreignObject width="87.359375" height="24"><div xmlns="http://www.w3.org/1999/xhtml" style="display: table-cell; white-space: nowrap; line-height: 1.5; max-width: 187px; text-align: start;"><span class="nodeLabel"><p>source_type</p></span></div></foreignObject></g><g class="label attribute-keys" transform="translate(118.0859375, -140.25)" style=""><foreignObject width="0" height="0"><div xmlns="http://www.w3.org/1999/xhtml" style="display: table-cell; white-space: nowrap; line-height: 1.5; max-width: 100px; text-align: start;"><span class="nodeLabel"></span></div></foreignObject></g><g class="label attribute-comment" transform="translate(161.8203125, -140.25)" style=""><foreignObject width="0" height="0"><div xmlns="http://www.w3.org/1999/xhtml" style="display: table-cell; white-space: nowrap; line-height: 1.5; max-width: 100px; text-align: start;"><span class="nodeLabel"></span></div></foreignObject></g><g class="label attribute-type" transform="translate(-136.8203125, -97.5)" style=""><foreignObject width="27.65625" height="24"><div xmlns="http://www.w3.org/1999/xhtml" style="display: table-cell; white-space: nowrap; line-height: 1.5; max-width: 128px; text-align: start;"><span class="nodeLabel"><p>text</p></span></div></foreignObject></g><g class="label attribute-name" transform="translate(-46.5703125, -97.5)" style=""><foreignObject width="91.46875" height="24"><div xmlns="http://www.w3.org/1999/xhtml" style="display: table-cell; white-space: nowrap; line-height: 1.5; max-width: 191px; text-align: start;"><span class="nodeLabel"><p>raw_payload</p></span></div></foreignObject></g><g class="label attribute-keys" transform="translate(118.0859375, -97.5)" style=""><foreignObject width="0" height="0"><div xmlns="http://www.w3.org/1999/xhtml" style="display: table-cell; white-space: nowrap; line-height: 1.5; max-width: 100px; text-align: start;"><span class="nodeLabel"></span></div></foreignObject></g><g class="label attribute-comment" transform="translate(161.8203125, -97.5)" style=""><foreignObject width="0" height="0"><div xmlns="http://www.w3.org/1999/xhtml" style="display: table-cell; white-space: nowrap; line-height: 1.5; max-width: 100px; text-align: start;"><span class="nodeLabel"></span></div></foreignObject></g><g class="label attribute-type" transform="translate(-136.8203125, -54.75)" style=""><foreignObject width="41.640625" height="24"><div xmlns="http://www.w3.org/1999/xhtml" style="display: table-cell; white-space: nowrap; line-height: 1.5; max-width: 142px; text-align: start;"><span class="nodeLabel"><p>string</p></span></div></foreignObject></g><g class="label attribute-name" transform="translate(-46.5703125, -54.75)" style=""><foreignObject width="111.953125" height="24"><div xmlns="http://www.w3.org/1999/xhtml" style="display: table-cell; white-space: nowrap; line-height: 1.5; max-width: 212px; text-align: start;"><span class="nodeLabel"><p>scope_category</p></span></div></foreignObject></g><g class="label attribute-keys" transform="translate(118.0859375, -54.75)" style=""><foreignObject width="0" height="0"><div xmlns="http://www.w3.org/1999/xhtml" style="display: table-cell; white-space: nowrap; line-height: 1.5; max-width: 100px; text-align: start;"><span class="nodeLabel"></span></div></foreignObject></g><g class="label attribute-comment" transform="translate(161.8203125, -54.75)" style=""><foreignObject width="0" height="0"><div xmlns="http://www.w3.org/1999/xhtml" style="display: table-cell; white-space: nowrap; line-height: 1.5; max-width: 100px; text-align: start;"><span class="nodeLabel"></span></div></foreignObject></g><g class="label attribute-type" transform="translate(-136.8203125, -12)" style=""><foreignObject width="33.0625" height="24"><div xmlns="http://www.w3.org/1999/xhtml" style="display: table-cell; white-space: nowrap; line-height: 1.5; max-width: 133px; text-align: start;"><span class="nodeLabel"><p>float</p></span></div></foreignObject></g><g class="label attribute-name" transform="translate(-46.5703125, -12)" style=""><foreignObject width="128.25" height="24"><div xmlns="http://www.w3.org/1999/xhtml" style="display: table-cell; white-space: nowrap; line-height: 1.5; max-width: 228px; text-align: start;"><span class="nodeLabel"><p>normalized_value</p></span></div></foreignObject></g><g class="label attribute-keys" transform="translate(118.0859375, -12)" style=""><foreignObject width="0" height="0"><div xmlns="http://www.w3.org/1999/xhtml" style="display: table-cell; white-space: nowrap; line-height: 1.5; max-width: 100px; text-align: start;"><span class="nodeLabel"></span></div></foreignObject></g><g class="label attribute-comment" transform="translate(161.8203125, -12)" style=""><foreignObject width="0" height="0"><div xmlns="http://www.w3.org/1999/xhtml" style="display: table-cell; white-space: nowrap; line-height: 1.5; max-width: 100px; text-align: start;"><span class="nodeLabel"></span></div></foreignObject></g><g class="label attribute-type" transform="translate(-136.8203125, 30.75)" style=""><foreignObject width="41.640625" height="24"><div xmlns="http://www.w3.org/1999/xhtml" style="display: table-cell; white-space: nowrap; line-height: 1.5; max-width: 142px; text-align: start;"><span class="nodeLabel"><p>string</p></span></div></foreignObject></g><g class="label attribute-name" transform="translate(-46.5703125, 30.75)" style=""><foreignObject width="118.5" height="24"><div xmlns="http://www.w3.org/1999/xhtml" style="display: table-cell; white-space: nowrap; line-height: 1.5; max-width: 219px; text-align: start;"><span class="nodeLabel"><p>normalized_unit</p></span></div></foreignObject></g><g class="label attribute-keys" transform="translate(118.0859375, 30.75)" style=""><foreignObject width="0" height="0"><div xmlns="http://www.w3.org/1999/xhtml" style="display: table-cell; white-space: nowrap; line-height: 1.5; max-width: 100px; text-align: start;"><span class="nodeLabel"></span></div></foreignObject></g><g class="label attribute-comment" transform="translate(161.8203125, 30.75)" style=""><foreignObject width="0" height="0"><div xmlns="http://www.w3.org/1999/xhtml" style="display: table-cell; white-space: nowrap; line-height: 1.5; max-width: 100px; text-align: start;"><span class="nodeLabel"></span></div></foreignObject></g><g class="label attribute-type" transform="translate(-136.8203125, 73.5)" style=""><foreignObject width="33.0625" height="24"><div xmlns="http://www.w3.org/1999/xhtml" style="display: table-cell; white-space: nowrap; line-height: 1.5; max-width: 133px; text-align: start;"><span class="nodeLabel"><p>float</p></span></div></foreignObject></g><g class="label attribute-name" transform="translate(-46.5703125, 73.5)" style=""><foreignObject width="139.65625" height="24"><div xmlns="http://www.w3.org/1999/xhtml" style="display: table-cell; white-space: nowrap; line-height: 1.5; max-width: 240px; text-align: start;"><span class="nodeLabel"><p>calculated_co2e_kg</p></span></div></foreignObject></g><g class="label attribute-keys" transform="translate(118.0859375, 73.5)" style=""><foreignObject width="0" height="0"><div xmlns="http://www.w3.org/1999/xhtml" style="display: table-cell; white-space: nowrap; line-height: 1.5; max-width: 100px; text-align: start;"><span class="nodeLabel"></span></div></foreignObject></g><g class="label attribute-comment" transform="translate(161.8203125, 73.5)" style=""><foreignObject width="0" height="0"><div xmlns="http://www.w3.org/1999/xhtml" style="display: table-cell; white-space: nowrap; line-height: 1.5; max-width: 100px; text-align: start;"><span class="nodeLabel"></span></div></foreignObject></g><g class="label attribute-type" transform="translate(-136.8203125, 116.25)" style=""><foreignObject width="41.640625" height="24"><div xmlns="http://www.w3.org/1999/xhtml" style="display: table-cell; white-space: nowrap; line-height: 1.5; max-width: 142px; text-align: start;"><span class="nodeLabel"><p>string</p></span></div></foreignObject></g><g class="label attribute-name" transform="translate(-46.5703125, 116.25)" style=""><foreignObject width="44.40625" height="24"><div xmlns="http://www.w3.org/1999/xhtml" style="display: table-cell; white-space: nowrap; line-height: 1.5; max-width: 144px; text-align: start;"><span class="nodeLabel"><p>status</p></span></div></foreignObject></g><g class="label attribute-keys" transform="translate(118.0859375, 116.25)" style=""><foreignObject width="0" height="0"><div xmlns="http://www.w3.org/1999/xhtml" style="display: table-cell; white-space: nowrap; line-height: 1.5; max-width: 100px; text-align: start;"><span class="nodeLabel"></span></div></foreignObject></g><g class="label attribute-comment" transform="translate(161.8203125, 116.25)" style=""><foreignObject width="0" height="0"><div xmlns="http://www.w3.org/1999/xhtml" style="display: table-cell; white-space: nowrap; line-height: 1.5; max-width: 100px; text-align: start;"><span class="nodeLabel"></span></div></foreignObject></g><g class="label attribute-type" transform="translate(-136.8203125, 159)" style=""><foreignObject width="27.65625" height="24"><div xmlns="http://www.w3.org/1999/xhtml" style="display: table-cell; white-space: nowrap; line-height: 1.5; max-width: 128px; text-align: start;"><span class="nodeLabel"><p>text</p></span></div></foreignObject></g><g class="label attribute-name" transform="translate(-46.5703125, 159)" style=""><foreignObject width="95.390625" height="24"><div xmlns="http://www.w3.org/1999/xhtml" style="display: table-cell; white-space: nowrap; line-height: 1.5; max-width: 195px; text-align: start;"><span class="nodeLabel"><p>review_notes</p></span></div></foreignObject></g><g class="label attribute-keys" transform="translate(118.0859375, 159)" style=""><foreignObject width="0" height="0"><div xmlns="http://www.w3.org/1999/xhtml" style="display: table-cell; white-space: nowrap; line-height: 1.5; max-width: 100px; text-align: start;"><span class="nodeLabel"></span></div></foreignObject></g><g class="label attribute-comment" transform="translate(161.8203125, 159)" style=""><foreignObject width="0" height="0"><div xmlns="http://www.w3.org/1999/xhtml" style="display: table-cell; white-space: nowrap; line-height: 1.5; max-width: 100px; text-align: start;"><span class="nodeLabel"></span></div></foreignObject></g><g class="label attribute-type" transform="translate(-136.8203125, 201.75)" style=""><foreignObject width="65.25" height="24"><div xmlns="http://www.w3.org/1999/xhtml" style="display: table-cell; white-space: nowrap; line-height: 1.5; max-width: 165px; text-align: start;"><span class="nodeLabel"><p>datetime</p></span></div></foreignObject></g><g class="label attribute-name" transform="translate(-46.5703125, 201.75)" style=""><foreignObject width="76.921875" height="24"><div xmlns="http://www.w3.org/1999/xhtml" style="display: table-cell; white-space: nowrap; line-height: 1.5; max-width: 177px; text-align: start;"><span class="nodeLabel"><p>created_at</p></span></div></foreignObject></g><g class="label attribute-keys" transform="translate(118.0859375, 201.75)" style=""><foreignObject width="0" height="0"><div xmlns="http://www.w3.org/1999/xhtml" style="display: table-cell; white-space: nowrap; line-height: 1.5; max-width: 100px; text-align: start;"><span class="nodeLabel"></span></div></foreignObject></g><g class="label attribute-comment" transform="translate(161.8203125, 201.75)" style=""><foreignObject width="0" height="0"><div xmlns="http://www.w3.org/1999/xhtml" style="display: table-cell; white-space: nowrap; line-height: 1.5; max-width: 100px; text-align: start;"><span class="nodeLabel"></span></div></foreignObject></g><g class="label attribute-type" transform="translate(-136.8203125, 244.5)" style=""><foreignObject width="65.25" height="24"><div xmlns="http://www.w3.org/1999/xhtml" style="display: table-cell; white-space: nowrap; line-height: 1.5; max-width: 165px; text-align: start;"><span class="nodeLabel"><p>datetime</p></span></div></foreignObject></g><g class="label attribute-name" transform="translate(-46.5703125, 244.5)" style=""><foreignObject width="83.40625" height="24"><div xmlns="http://www.w3.org/1999/xhtml" style="display: table-cell; white-space: nowrap; line-height: 1.5; max-width: 184px; text-align: start;"><span class="nodeLabel"><p>updated_at</p></span></div></foreignObject></g><g class="label attribute-keys" transform="translate(118.0859375, 244.5)" style=""><foreignObject width="0" height="0"><div xmlns="http://www.w3.org/1999/xhtml" style="display: table-cell; white-space: nowrap; line-height: 1.5; max-width: 100px; text-align: start;"><span class="nodeLabel"></span></div></foreignObject></g><g class="label attribute-comment" transform="translate(161.8203125, 244.5)" style=""><foreignObject width="0" height="0"><div xmlns="http://www.w3.org/1999/xhtml" style="display: table-cell; white-space: nowrap; line-height: 1.5; max-width: 100px; text-align: start;"><span class="nodeLabel"></span></div></foreignObject></g><g class="divider"><path d="M-149.3203125 -235.125 C-75.0209184872954 -235.125, -0.721524474590808 -235.125, 149.3203125 -235.125 M-149.3203125 -235.125 C-71.26712485149724 -235.125, 6.786062797005513 -235.125, 149.3203125 -235.125" stroke="#9370DB" stroke-width="1.3" fill="none" stroke-dasharray="0 0"></path></g><g class="divider"><path d="M-59.0703125 -235.125 C-59.0703125 -64.72392076271134, -59.0703125 105.67715847457731, -59.0703125 277.875 M-59.0703125 -235.125 C-59.0703125 -31.485244050710833, -59.0703125 172.15451189857833, -59.0703125 277.875" stroke="#9370DB" stroke-width="1.3" fill="none" stroke-dasharray="0 0"></path></g><g class="divider"><path d="M105.5859375 -235.125 C105.5859375 -124.28123497031028, 105.5859375 -13.43746994062056, 105.5859375 277.875 M105.5859375 -235.125 C105.5859375 -69.2340502304908, 105.5859375 96.65689953901841, 105.5859375 277.875" stroke="#9370DB" stroke-width="1.3" fill="none" stroke-dasharray="0 0"></path></g><g class="divider"><path d="M-149.3203125 -235.125 C-42.35597824366869 -235.125, 64.60835601266263 -235.125, 149.3203125 -235.125 M-149.3203125 -235.125 C-55.09812564712422 -235.125, 39.12406120575156 -235.125, 149.3203125 -235.125" stroke="#9370DB" stroke-width="1.3" fill="none" stroke-dasharray="0 0"></path></g></g><g class="node default" id="entity-AUDIT_TRAIL_LOG-2" transform="translate(157.3203125, 1107.75)"><g style=""><path d="M-132.7265625 -171 L132.7265625 -171 L132.7265625 171 L-132.7265625 171" stroke="none" stroke-width="0" fill="#ECECFF"></path><path d="M-132.7265625 -171 C-66.01038371595307 -171, 0.7057950680938632 -171, 132.7265625 -171 M-132.7265625 -171 C-71.47675762652784 -171, -10.22695275305567 -171, 132.7265625 -171 M132.7265625 -171 C132.7265625 -65.05810502350575, 132.7265625 40.88378995298851, 132.7265625 171 M132.7265625 -171 C132.7265625 -66.68801493055379, 132.7265625 37.62397013889242, 132.7265625 171 M132.7265625 171 C78.26743636690361 171, 23.80831023380722 171, -132.7265625 171 M132.7265625 171 C39.27508776141953 171, -54.176386977160945 171, -132.7265625 171 M-132.7265625 171 C-132.7265625 51.76514707380011, -132.7265625 -67.46970585239978, -132.7265625 -171 M-132.7265625 171 C-132.7265625 40.85158652191507, -132.7265625 -89.29682695616987, -132.7265625 -171" stroke="#9370DB" stroke-width="1.3" fill="none" stroke-dasharray="0 0"></path></g><g style="" class="row-rect-odd"><path d="M-132.7265625 -128.25 L132.7265625 -128.25 L132.7265625 -85.5 L-132.7265625 -85.5" stroke="none" stroke-width="0" fill="hsl(240, 100%, 100%)"></path><path d="M-132.7265625 -128.25 C-64.40147168728883 -128.25, 3.9236191254223343 -128.25, 132.7265625 -128.25 M-132.7265625 -128.25 C-31.010384907670215 -128.25, 70.70579268465957 -128.25, 132.7265625 -128.25 M132.7265625 -128.25 C132.7265625 -111.82407657857473, 132.7265625 -95.39815315714947, 132.7265625 -85.5 M132.7265625 -128.25 C132.7265625 -114.51928951111728, 132.7265625 -100.78857902223456, 132.7265625 -85.5 M132.7265625 -85.5 C32.45522476427901 -85.5, -67.81611297144198 -85.5, -132.7265625 -85.5 M132.7265625 -85.5 C56.50519443564549 -85.5, -19.716173628709015 -85.5, -132.7265625 -85.5 M-132.7265625 -85.5 C-132.7265625 -95.2605597600609, -132.7265625 -105.0211195201218, -132.7265625 -128.25 M-132.7265625 -85.5 C-132.7265625 -99.6176543500228, -132.7265625 -113.73530870004561, -132.7265625 -128.25" stroke="#9370DB" stroke-width="1.3" fill="none" stroke-dasharray="0 0"></path></g><g style="" class="row-rect-even"><path d="M-132.7265625 -85.5 L132.7265625 -85.5 L132.7265625 -42.75 L-132.7265625 -42.75" stroke="none" stroke-width="0" fill="hsl(240, 100%, 97.2745098039%)"></path><path d="M-132.7265625 -85.5 C-36.540614422852855 -85.5, 59.64533365429429 -85.5, 132.7265625 -85.5 M-132.7265625 -85.5 C-70.2046832319057 -85.5, -7.682803963811423 -85.5, 132.7265625 -85.5 M132.7265625 -85.5 C132.7265625 -68.96437175840765, 132.7265625 -52.42874351681531, 132.7265625 -42.75 M132.7265625 -85.5 C132.7265625 -74.81597058871971, 132.7265625 -64.1319411774394, 132.7265625 -42.75 M132.7265625 -42.75 C61.645392543359506 -42.75, -9.435777413280988 -42.75, -132.7265625 -42.75 M132.7265625 -42.75 C59.897617175001386 -42.75, -12.931328149997228 -42.75, -132.7265625 -42.75 M-132.7265625 -42.75 C-132.7265625 -54.5655099148665, -132.7265625 -66.381019829733, -132.7265625 -85.5 M-132.7265625 -42.75 C-132.7265625 -52.75460345182034, -132.7265625 -62.759206903640674, -132.7265625 -85.5" stroke="#9370DB" stroke-width="1.3" fill="none" stroke-dasharray="0 0"></path></g><g style="" class="row-rect-odd"><path d="M-132.7265625 -42.75 L132.7265625 -42.75 L132.7265625 0 L-132.7265625 0" stroke="none" stroke-width="0" fill="hsl(240, 100%, 100%)"></path><path d="M-132.7265625 -42.75 C-67.68553442162005 -42.75, -2.6445063432400957 -42.75, 132.7265625 -42.75 M-132.7265625 -42.75 C-37.66696594310943 -42.75, 57.39263061378114 -42.75, 132.7265625 -42.75 M132.7265625 -42.75 C132.7265625 -30.545121774315973, 132.7265625 -18.34024354863195, 132.7265625 0 M132.7265625 -42.75 C132.7265625 -25.80331209949223, 132.7265625 -8.856624198984463, 132.7265625 0 M132.7265625 0 C72.86801916620576 0, 13.009475832411525 0, -132.7265625 0 M132.7265625 0 C68.60336960000045 0, 4.4801767000008965 0, -132.7265625 0 M-132.7265625 0 C-132.7265625 -17.094625445583546, -132.7265625 -34.18925089116709, -132.7265625 -42.75 M-132.7265625 0 C-132.7265625 -15.562039619844821, -132.7265625 -31.124079239689642, -132.7265625 -42.75" stroke="#9370DB" stroke-width="1.3" fill="none" stroke-dasharray="0 0"></path></g><g style="" class="row-rect-even"><path d="M-132.7265625 0 L132.7265625 0 L132.7265625 42.75 L-132.7265625 42.75" stroke="none" stroke-width="0" fill="hsl(240, 100%, 97.2745098039%)"></path><path d="M-132.7265625 0 C-52.37105587787184 0, 27.98445074425632 0, 132.7265625 0 M-132.7265625 0 C-62.96567922115753 0, 6.795204057684941 0, 132.7265625 0 M132.7265625 0 C132.7265625 9.014320427995944, 132.7265625 18.02864085599189, 132.7265625 42.75 M132.7265625 0 C132.7265625 14.310057767892184, 132.7265625 28.620115535784368, 132.7265625 42.75 M132.7265625 42.75 C62.34747489099978 42.75, -8.031612718000446 42.75, -132.7265625 42.75 M132.7265625 42.75 C52.88571896348269 42.75, -26.955124573034624 42.75, -132.7265625 42.75 M-132.7265625 42.75 C-132.7265625 32.79439765838174, -132.7265625 22.838795316763488, -132.7265625 0 M-132.7265625 42.75 C-132.7265625 28.23216414100402, -132.7265625 13.714328282008044, -132.7265625 0" stroke="#9370DB" stroke-width="1.3" fill="none" stroke-dasharray="0 0"></path></g><g style="" class="row-rect-odd"><path d="M-132.7265625 42.75 L132.7265625 42.75 L132.7265625 85.5 L-132.7265625 85.5" stroke="none" stroke-width="0" fill="hsl(240, 100%, 100%)"></path><path d="M-132.7265625 42.75 C-62.23580336295433 42.75, 8.254955774091343 42.75, 132.7265625 42.75 M-132.7265625 42.75 C-36.80886640948961 42.75, 59.10882968102078 42.75, 132.7265625 42.75 M132.7265625 42.75 C132.7265625 51.623703362449405, 132.7265625 60.4974067248988, 132.7265625 85.5 M132.7265625 42.75 C132.7265625 51.40359988660917, 132.7265625 60.05719977321835, 132.7265625 85.5 M132.7265625 85.5 C37.143272888288934 85.5, -58.44001672342213 85.5, -132.7265625 85.5 M132.7265625 85.5 C58.17063520518006 85.5, -16.385292089639876 85.5, -132.7265625 85.5 M-132.7265625 85.5 C-132.7265625 72.83887087342612, -132.7265625 60.17774174685225, -132.7265625 42.75 M-132.7265625 85.5 C-132.7265625 68.53444563867676, -132.7265625 51.56889127735352, -132.7265625 42.75" stroke="#9370DB" stroke-width="1.3" fill="none" stroke-dasharray="0 0"></path></g><g style="" class="row-rect-even"><path d="M-132.7265625 85.5 L132.7265625 85.5 L132.7265625 128.25 L-132.7265625 128.25" stroke="none" stroke-width="0" fill="hsl(240, 100%, 97.2745098039%)"></path><path d="M-132.7265625 85.5 C-30.212393477293205 85.5, 72.30177554541359 85.5, 132.7265625 85.5 M-132.7265625 85.5 C-76.93505981890368 85.5, -21.14355713780735 85.5, 132.7265625 85.5 M132.7265625 85.5 C132.7265625 99.61346490750861, 132.7265625 113.72692981501723, 132.7265625 128.25 M132.7265625 85.5 C132.7265625 98.75095809691135, 132.7265625 112.0019161938227, 132.7265625 128.25 M132.7265625 128.25 C78.38118958317528 128.25, 24.035816666350584 128.25, -132.7265625 128.25 M132.7265625 128.25 C59.901945390684915 128.25, -12.92267171863017 128.25, -132.7265625 128.25 M-132.7265625 128.25 C-132.7265625 116.00649208345537, -132.7265625 103.76298416691074, -132.7265625 85.5 M-132.7265625 128.25 C-132.7265625 113.61956555960322, -132.7265625 98.98913111920643, -132.7265625 85.5" stroke="#9370DB" stroke-width="1.3" fill="none" stroke-dasharray="0 0"></path></g><g style="" class="row-rect-odd"><path d="M-132.7265625 128.25 L132.7265625 128.25 L132.7265625 171 L-132.7265625 171" stroke="none" stroke-width="0" fill="hsl(240, 100%, 100%)"></path><path d="M-132.7265625 128.25 C-29.815069390620195 128.25, 73.09642371875961 128.25, 132.7265625 128.25 M-132.7265625 128.25 C-57.53888697525743 128.25, 17.648788549485147 128.25, 132.7265625 128.25 M132.7265625 128.25 C132.7265625 144.44017695998235, 132.7265625 160.6303539199647, 132.7265625 171 M132.7265625 128.25 C132.7265625 138.36017741842716, 132.7265625 148.4703548368543, 132.7265625 171 M132.7265625 171 C47.550619658611865 171, -37.62532318277627 171, -132.7265625 171 M132.7265625 171 C70.9300306918036 171, 9.133498883607189 171, -132.7265625 171 M-132.7265625 171 C-132.7265625 156.5006237770427, -132.7265625 142.0012475540854, -132.7265625 128.25 M-132.7265625 171 C-132.7265625 160.20848894995106, -132.7265625 149.41697789990212, -132.7265625 128.25" stroke="#9370DB" stroke-width="1.3" fill="none" stroke-dasharray="0 0"></path></g><g class="label name" transform="translate(-63.0859375, -161.625)" style=""><foreignObject width="126.171875" height="24"><div xmlns="http://www.w3.org/1999/xhtml" style="display: table-cell; white-space: nowrap; line-height: 1.5; max-width: 226px; text-align: start;"><span class="nodeLabel"><p>AUDIT_TRAIL_LOG</p></span></div></foreignObject></g><g class="label attribute-type" transform="translate(-120.2265625, -118.875)" style=""><foreignObject width="19.671875" height="24"><div xmlns="http://www.w3.org/1999/xhtml" style="display: table-cell; white-space: nowrap; line-height: 1.5; max-width: 120px; text-align: start;"><span class="nodeLabel"><p>int</p></span></div></foreignObject></g><g class="label attribute-name" transform="translate(-29.9765625, -118.875)" style=""><foreignObject width="14.09375" height="24"><div xmlns="http://www.w3.org/1999/xhtml" style="display: table-cell; white-space: nowrap; line-height: 1.5; max-width: 114px; text-align: start;"><span class="nodeLabel"><p>id</p></span></div></foreignObject></g><g class="label attribute-keys" transform="translate(101.4921875, -118.875)" style=""><foreignObject width="18.734375" height="24"><div xmlns="http://www.w3.org/1999/xhtml" style="display: table-cell; white-space: nowrap; line-height: 1.5; max-width: 119px; text-align: start;"><span class="nodeLabel"><p>PK</p></span></div></foreignObject></g><g class="label attribute-comment" transform="translate(145.2265625, -118.875)" style=""><foreignObject width="0" height="0"><div xmlns="http://www.w3.org/1999/xhtml" style="display: table-cell; white-space: nowrap; line-height: 1.5; max-width: 100px; text-align: start;"><span class="nodeLabel"></span></div></foreignObject></g><g class="label attribute-type" transform="translate(-120.2265625, -76.125)" style=""><foreignObject width="19.671875" height="24"><div xmlns="http://www.w3.org/1999/xhtml" style="display: table-cell; white-space: nowrap; line-height: 1.5; max-width: 120px; text-align: start;"><span class="nodeLabel"><p>int</p></span></div></foreignObject></g><g class="label attribute-name" transform="translate(-29.9765625, -76.125)" style=""><foreignObject width="68.765625" height="24"><div xmlns="http://www.w3.org/1999/xhtml" style="display: table-cell; white-space: nowrap; line-height: 1.5; max-width: 169px; text-align: start;"><span class="nodeLabel"><p>record_id</p></span></div></foreignObject></g><g class="label attribute-keys" transform="translate(101.4921875, -76.125)" style=""><foreignObject width="17.28125" height="24"><div xmlns="http://www.w3.org/1999/xhtml" style="display: table-cell; white-space: nowrap; line-height: 1.5; max-width: 118px; text-align: start;"><span class="nodeLabel"><p>FK</p></span></div></foreignObject></g><g class="label attribute-comment" transform="translate(145.2265625, -76.125)" style=""><foreignObject width="0" height="0"><div xmlns="http://www.w3.org/1999/xhtml" style="display: table-cell; white-space: nowrap; line-height: 1.5; max-width: 100px; text-align: start;"><span class="nodeLabel"></span></div></foreignObject></g><g class="label attribute-type" transform="translate(-120.2265625, -33.375)" style=""><foreignObject width="41.640625" height="24"><div xmlns="http://www.w3.org/1999/xhtml" style="display: table-cell; white-space: nowrap; line-height: 1.5; max-width: 142px; text-align: start;"><span class="nodeLabel"><p>string</p></span></div></foreignObject></g><g class="label attribute-name" transform="translate(-29.9765625, -33.375)" style=""><foreignObject width="102.765625" height="24"><div xmlns="http://www.w3.org/1999/xhtml" style="display: table-cell; white-space: nowrap; line-height: 1.5; max-width: 203px; text-align: start;"><span class="nodeLabel"><p>performed_by</p></span></div></foreignObject></g><g class="label attribute-keys" transform="translate(101.4921875, -33.375)" style=""><foreignObject width="0" height="0"><div xmlns="http://www.w3.org/1999/xhtml" style="display: table-cell; white-space: nowrap; line-height: 1.5; max-width: 100px; text-align: start;"><span class="nodeLabel"></span></div></foreignObject></g><g class="label attribute-comment" transform="translate(145.2265625, -33.375)" style=""><foreignObject width="0" height="0"><div xmlns="http://www.w3.org/1999/xhtml" style="display: table-cell; white-space: nowrap; line-height: 1.5; max-width: 100px; text-align: start;"><span class="nodeLabel"></span></div></foreignObject></g><g class="label attribute-type" transform="translate(-120.2265625, 9.375)" style=""><foreignObject width="41.640625" height="24"><div xmlns="http://www.w3.org/1999/xhtml" style="display: table-cell; white-space: nowrap; line-height: 1.5; max-width: 142px; text-align: start;"><span class="nodeLabel"><p>string</p></span></div></foreignObject></g><g class="label attribute-name" transform="translate(-29.9765625, 9.375)" style=""><foreignObject width="85.15625" height="24"><div xmlns="http://www.w3.org/1999/xhtml" style="display: table-cell; white-space: nowrap; line-height: 1.5; max-width: 185px; text-align: start;"><span class="nodeLabel"><p>action_type</p></span></div></foreignObject></g><g class="label attribute-keys" transform="translate(101.4921875, 9.375)" style=""><foreignObject width="0" height="0"><div xmlns="http://www.w3.org/1999/xhtml" style="display: table-cell; white-space: nowrap; line-height: 1.5; max-width: 100px; text-align: start;"><span class="nodeLabel"></span></div></foreignObject></g><g class="label attribute-comment" transform="translate(145.2265625, 9.375)" style=""><foreignObject width="0" height="0"><div xmlns="http://www.w3.org/1999/xhtml" style="display: table-cell; white-space: nowrap; line-height: 1.5; max-width: 100px; text-align: start;"><span class="nodeLabel"></span></div></foreignObject></g><g class="label attribute-type" transform="translate(-120.2265625, 52.125)" style=""><foreignObject width="30.6875" height="24"><div xmlns="http://www.w3.org/1999/xhtml" style="display: table-cell; white-space: nowrap; line-height: 1.5; max-width: 132px; text-align: start;"><span class="nodeLabel"><p>json</p></span></div></foreignObject></g><g class="label attribute-name" transform="translate(-29.9765625, 52.125)" style=""><foreignObject width="106.46875" height="24"><div xmlns="http://www.w3.org/1999/xhtml" style="display: table-cell; white-space: nowrap; line-height: 1.5; max-width: 206px; text-align: start;"><span class="nodeLabel"><p>previous_state</p></span></div></foreignObject></g><g class="label attribute-keys" transform="translate(101.4921875, 52.125)" style=""><foreignObject width="0" height="0"><div xmlns="http://www.w3.org/1999/xhtml" style="display: table-cell; white-space: nowrap; line-height: 1.5; max-width: 100px; text-align: start;"><span class="nodeLabel"></span></div></foreignObject></g><g class="label attribute-comment" transform="translate(145.2265625, 52.125)" style=""><foreignObject width="0" height="0"><div xmlns="http://www.w3.org/1999/xhtml" style="display: table-cell; white-space: nowrap; line-height: 1.5; max-width: 100px; text-align: start;"><span class="nodeLabel"></span></div></foreignObject></g><g class="label attribute-type" transform="translate(-120.2265625, 94.875)" style=""><foreignObject width="30.6875" height="24"><div xmlns="http://www.w3.org/1999/xhtml" style="display: table-cell; white-space: nowrap; line-height: 1.5; max-width: 132px; text-align: start;"><span class="nodeLabel"><p>json</p></span></div></foreignObject></g><g class="label attribute-name" transform="translate(-29.9765625, 94.875)" style=""><foreignObject width="73.671875" height="24"><div xmlns="http://www.w3.org/1999/xhtml" style="display: table-cell; white-space: nowrap; line-height: 1.5; max-width: 174px; text-align: start;"><span class="nodeLabel"><p>new_state</p></span></div></foreignObject></g><g class="label attribute-keys" transform="translate(101.4921875, 94.875)" style=""><foreignObject width="0" height="0"><div xmlns="http://www.w3.org/1999/xhtml" style="display: table-cell; white-space: nowrap; line-height: 1.5; max-width: 100px; text-align: start;"><span class="nodeLabel"></span></div></foreignObject></g><g class="label attribute-comment" transform="translate(145.2265625, 94.875)" style=""><foreignObject width="0" height="0"><div xmlns="http://www.w3.org/1999/xhtml" style="display: table-cell; white-space: nowrap; line-height: 1.5; max-width: 100px; text-align: start;"><span class="nodeLabel"></span></div></foreignObject></g><g class="label attribute-type" transform="translate(-120.2265625, 137.625)" style=""><foreignObject width="65.25" height="24"><div xmlns="http://www.w3.org/1999/xhtml" style="display: table-cell; white-space: nowrap; line-height: 1.5; max-width: 165px; text-align: start;"><span class="nodeLabel"><p>datetime</p></span></div></foreignObject></g><g class="label attribute-name" transform="translate(-29.9765625, 137.625)" style=""><foreignObject width="77.78125" height="24"><div xmlns="http://www.w3.org/1999/xhtml" style="display: table-cell; white-space: nowrap; line-height: 1.5; max-width: 178px; text-align: start;"><span class="nodeLabel"><p>timestamp</p></span></div></foreignObject></g><g class="label attribute-keys" transform="translate(101.4921875, 137.625)" style=""><foreignObject width="0" height="0"><div xmlns="http://www.w3.org/1999/xhtml" style="display: table-cell; white-space: nowrap; line-height: 1.5; max-width: 100px; text-align: start;"><span class="nodeLabel"></span></div></foreignObject></g><g class="label attribute-comment" transform="translate(145.2265625, 137.625)" style=""><foreignObject width="0" height="0"><div xmlns="http://www.w3.org/1999/xhtml" style="display: table-cell; white-space: nowrap; line-height: 1.5; max-width: 100px; text-align: start;"><span class="nodeLabel"></span></div></foreignObject></g><g class="divider"><path d="M-132.7265625 -128.25 C-35.14567643799157 -128.25, 62.43520962401686 -128.25, 132.7265625 -128.25 M-132.7265625 -128.25 C-74.4800518113862 -128.25, -16.233541122772394 -128.25, 132.7265625 -128.25" stroke="#9370DB" stroke-width="1.3" fill="none" stroke-dasharray="0 0"></path></g><g class="divider"><path d="M-42.4765625 -128.25 C-42.4765625 -18.696332790873697, -42.4765625 90.8573344182526, -42.4765625 171 M-42.4765625 -128.25 C-42.4765625 -25.786256332826866, -42.4765625 76.67748733434627, -42.4765625 171" stroke="#9370DB" stroke-width="1.3" fill="none" stroke-dasharray="0 0"></path></g><g class="divider"><path d="M88.9921875 -128.25 C88.9921875 -17.986477384296577, 88.9921875 92.27704523140685, 88.9921875 171 M88.9921875 -128.25 C88.9921875 -40.0412134483106, 88.9921875 48.1675731033788, 88.9921875 171" stroke="#9370DB" stroke-width="1.3" fill="none" stroke-dasharray="0 0"></path></g><g class="divider"><path d="M-132.7265625 -128.25 C-36.291784153688596 -128.25, 60.14299419262281 -128.25, 132.7265625 -128.25 M-132.7265625 -128.25 C-44.607780139799004 -128.25, 43.51100222040199 -128.25, 132.7265625 -128.25" stroke="#9370DB" stroke-width="1.3" fill="none" stroke-dasharray="0 0"></path></g></g></g></g></g></svg>